<svg id="sw-js-blob-svg" viewBox="0 0 100 100" xmlns="http://www.w3.org/2000/svg">                    <defs>                         <linearGradient id="sw-gradient" x1="0" x2="1" y1="1" y2="0">                            <stop id="stop1" stop-color="rgba(248, 117, 55, 1)" offset="0%"></stop>                            <stop id="stop2" stop-color="rgba(251, 168, 31, 1)" offset="100%"></stop>                        </linearGradient>                    </defs>                <path fill="url(#sw-gradient)" d="M28.4,-33.9C36.4,-27.2,42,-17.8,42.4,-8.5C42.9,0.8,38.1,10,32.8,18.8C27.6,27.6,21.8,35.9,14.1,38.8C6.3,41.6,-3.5,39,-12.7,35.4C-21.9,31.8,-30.5,27.2,-36,19.8C-41.6,12.3,-44,2.1,-42.8,-8.1C-41.6,-18.2,-36.9,-28.3,-29.2,-35C-21.4,-41.7,-10.7,-45.2,-0.2,-44.9C10.2,-44.6,20.5,-40.6,28.4,-33.9Z" width="100%" height="100%" transform="translate(50 50)" stroke-width="0"></path>              </svg>